<svg xmlns="http://www.w3.org/2000/svg" viewBox="0 0 1473.26 232.74"><defs><style>.a{fill:#3952a0;}.b{fill:#1d1d1b;}</style></defs><title>Baufinanzierung-Halle</title><path class="a" d="M56.6,102.89h52.58q13.16,0,20.19,6.51a21.08,21.08,0,0,1,7,16.12,20.33,20.33,0,0,1-5,13.83,22.37,22.37,0,0,1-9.79,6.08q9.79,2.35,14.41,8.09t4.62,14.42a24.79,24.79,0,0,1-3.28,12.71,24.22,24.22,0,0,1-9,8.93q-3.54,2-10.67,3a125.18,125.18,0,0,1-12.59,1.24H56.6Zm28.34,35.65H97.15q6.57,0,9.15-2.26a8.23,8.23,0,0,0,2.57-6.54,7.75,7.75,0,0,0-2.57-6.2c-1.72-1.49-4.7-2.24-9-2.24H84.94Zm0,35.72H99.26q7.26,0,10.23-2.57a8.67,8.67,0,0,0,3-6.92,8,8,0,0,0-2.94-6.48q-3-2.44-10.33-2.45H84.94Z"/><path class="a" d="M148.8,102.89h69.45v19.53H177V138.3h35.23v18.35H177V193.8H148.8Z"/><path class="a" d="M225.66,102.89h28.1V134.7h30.69V102.89h28.22V193.8H284.45V157H253.76V193.8h-28.1Z"/><path class="a" d="M333.23,18.38a211.13,211.13,0,0,1-19.56,25.7A148,148,0,0,1,289.5,66c-2.2,1.64-4.54,3.09-6.84,4.59s-4.72,2.84-7.19,4.07-5,2.44-7.47,3.59l-3.85,1.55c-1.27.53-2.6.92-3.9,1.39a102.61,102.61,0,0,1-16.09,4,101.3,101.3,0,0,1-16.47,1.29,117.14,117.14,0,0,1-32.29-4.73,156.33,156.33,0,0,1-29.78-12.21,201.94,201.94,0,0,1-26.87-17.19c-4.25-3.18-8.36-6.53-12.37-10-2-1.74-4-3.52-5.9-5.34s-3.81-3.64-5.74-5.68l5.33.2L0,134.67,115,25.89l2.63-2.48,2.7,2.69c1.7,1.69,3.63,3.46,5.51,5.13s3.85,3.35,5.83,5q5.92,4.84,12.18,9.27a193.73,193.73,0,0,0,26.14,15.66,145.69,145.69,0,0,0,28.2,10.62,106.44,106.44,0,0,0,29.4,3.45,91.07,91.07,0,0,0,14.57-1.57,91.15,91.15,0,0,0,14.06-4c1.13-.45,2.29-.83,3.4-1.33l3.35-1.46c2.19-1.09,4.39-2.13,6.51-3.37s4.2-2.51,6.27-3.8,4.07-2.75,6-4.29a134.07,134.07,0,0,0,21.36-20.59,197.37,197.37,0,0,0,17.5-24.46Z"/><path class="a" d="M313.39,13.29c1.9-1.21,3.87-2.33,5.86-3.39a44.72,44.72,0,0,1,11.07-4.58q.66-.15,1.32-.27c.71-.12-.51,0,.18,0l.61,0c.38,0,.76,0,1.14,0,.57,0-.51-.15,0,0a5,5,0,0,0,.64.16c.5.06-.34-.2-.08,0,.09,0,.27.09.34.18.27.34-.48-.41-.14-.1s.21.41-.06-.12c.13.25.29.49.42.74-.35-.67.1.41.17.67s.16.75.23,1.13c.12.67-.06-.55,0,.15,0,.22.05.43.07.65.08.93.11,1.87.12,2.8,0,2.1-.11,4.19-.3,6.27-.08,1-.19,2-.31,3-.05.49-.11,1-.18,1.46,0,.19-.05.38-.07.58.1-.73,0,.07,0,.21-.12.84-.24,1.68-.39,2.51a2.58,2.58,0,0,0,1.75,3.08,2.52,2.52,0,0,0,3.07-1.75c.46-2.66.8-5.35,1.06-8,.42-4.23.76-8.67-.1-12.87-2.07-10.21-15.13-4.11-20.92-1.22A85.84,85.84,0,0,0,310.86,9c-2.7,1.72-.2,6,2.53,4.31Z"/><path class="b" d="M400.15,104.1h31.1a39.24,39.24,0,0,1,13.93,2.45,23.49,23.49,0,0,1,10.64,7.84q4.13,5.39,4.12,13.9A19.7,19.7,0,0,1,457,138.82a18.76,18.76,0,0,1-7,7,20.43,20.43,0,0,1,7.3,5.08,26.66,26.66,0,0,1,5.2,8,22.63,22.63,0,0,1,1.91,8.92,24.23,24.23,0,0,1-4,14,25.83,25.83,0,0,1-10.76,9,34.43,34.43,0,0,1-14.48,3.08h-35Zm32.62,36.12a15,15,0,0,0,8.92-2.47q3.46-2.48,3.46-8.57a9,9,0,0,0-3.81-7.81,16.47,16.47,0,0,0-9.83-2.73H416.27v21.58Zm2.61,38.21q6.35,0,9.74-3.11t3.4-9.33a10.77,10.77,0,0,0-1.72-5.93,12.28,12.28,0,0,0-4.82-4.32,15.46,15.46,0,0,0-7.24-1.62H416.27v24.31Z"/><path class="b" d="M506.91,132.35a22.73,22.73,0,0,1,9.46,9.27,28.07,28.07,0,0,1,3.27,13.71V193.8H506.88l-1-8.45a18.66,18.66,0,0,1-8.47,7.21,28.14,28.14,0,0,1-23.11.06,19.26,19.26,0,0,1-8.25-7.14,20.24,20.24,0,0,1-3-11.17q0-9.72,6.82-14T488.34,156h17.2a22.86,22.86,0,0,0-1.39-7.77,8.09,8.09,0,0,0-4-4.26,18.31,18.31,0,0,0-7.81-1.36,15.63,15.63,0,0,0-8.85,2.51,19.28,19.28,0,0,0-6.07,6.44L465.55,143a35.92,35.92,0,0,1,11.33-10.28,34.33,34.33,0,0,1,30-.32ZM497.36,180a15.58,15.58,0,0,0,5.65-5.24,17.24,17.24,0,0,0,2.6-7.14v-.5H489.23q-5,0-7.65,2.22a6.89,6.89,0,0,0-2.63,5.46,6.2,6.2,0,0,0,2.63,5.2q2.64,2,7.65,2A16.53,16.53,0,0,0,497.36,180Z"/><path class="b" d="M533.66,191.32a21.61,21.61,0,0,1-7.56-9.78,35.36,35.36,0,0,1-2.38-13.07V130.38H539V166.5c0,4.28,1.06,7.72,3.18,10.35s5.09,3.93,8.95,3.93c4.52,0,8-1.29,10.53-3.87s3.75-6.54,3.75-11.87V130.38h15.36V193.8H565.43v-7.43a21.78,21.78,0,0,1-8.57,6.57,25.8,25.8,0,0,1-10.16,2.13Q538.83,195.07,533.66,191.32Z"/><path class="b" d="M643.4,193.8H629.12V143.33H607.79V193.8H592.3V143.33H581.89v-13H592.3v-4.57A21,21,0,0,1,596,113.53a23.35,23.35,0,0,1,9.78-8,32.14,32.14,0,0,1,13.36-2.76,49.48,49.48,0,0,1,13.52,1.65,41.7,41.7,0,0,1,11,5l-7.11,10.91a28.76,28.76,0,0,0-16.7-5.07q-6,0-9,2.92a10.44,10.44,0,0,0-3,7.87v4.31H643.4Z"/><path class="b" d="M652,130.38h15.49v7.37a22.85,22.85,0,0,1,8.56-6.54,24.93,24.93,0,0,1,10-2.16q7.88,0,13.08,3.74a22,22,0,0,1,7.65,9.81,34.71,34.71,0,0,1,2.44,13.11V193.8H693.76V157.68q0-6.42-3.17-10.38a10.8,10.8,0,0,0-9-4q-6.74,0-10.44,3.84t-3.71,11.9V193.8H652Z"/><path class="b" d="M754.19,132.35a22.73,22.73,0,0,1,9.46,9.27,28.07,28.07,0,0,1,3.27,13.71V193.8H754.16l-1-8.45a18.66,18.66,0,0,1-8.47,7.21,28.14,28.14,0,0,1-23.11.06,19.26,19.26,0,0,1-8.25-7.14,20.24,20.24,0,0,1-3-11.17q0-9.72,6.82-14T735.62,156h17.2a22.86,22.86,0,0,0-1.39-7.77,8.09,8.09,0,0,0-4-4.26,18.31,18.31,0,0,0-7.81-1.36,15.66,15.66,0,0,0-8.86,2.51,19.36,19.36,0,0,0-6.06,6.44L712.83,143a35.92,35.92,0,0,1,11.33-10.28,34.33,34.33,0,0,1,30-.32ZM744.63,180a15.42,15.42,0,0,0,5.65-5.24,17.12,17.12,0,0,0,2.61-7.14v-.5H736.51q-5,0-7.65,2.22a6.86,6.86,0,0,0-2.63,5.46,6.17,6.17,0,0,0,2.63,5.2q2.64,2,7.65,2A16.49,16.49,0,0,0,744.63,180Z"/><path class="b" d="M773.67,130.38h15.49v7.37a22.89,22.89,0,0,1,8.57-6.54,24.86,24.86,0,0,1,10-2.16q7.86,0,13.07,3.74a22,22,0,0,1,7.65,9.81,34.71,34.71,0,0,1,2.44,13.11V193.8H815.44V157.68q0-6.42-3.18-10.38a10.79,10.79,0,0,0-9-4q-6.72,0-10.44,3.84t-3.71,11.9V193.8H773.67Z"/><path class="b" d="M887.83,141.43l-34.41,39.35h34.41v13H831.9V183.51l35.87-40.18h-34v-13h54.09Z"/><path class="b" d="M891.34,104.1h16.25v14.29H891.34Zm.38,26.28h15.49V193.8H891.72Z"/><path class="b" d="M924.76,190.56a28.33,28.33,0,0,1-10.83-12,37.08,37.08,0,0,1-3.58-16.28,39.24,39.24,0,0,1,3.42-16.25,28.76,28.76,0,0,1,10.45-12.31q7-4.69,17.23-4.7,10.41,0,17,4.79A27,27,0,0,1,968,145.9,40.55,40.55,0,0,1,970.84,161c0,1.27-.05,2.49-.16,3.65a10.71,10.71,0,0,1-.41,2.45H926.72Q928.94,181,942.59,181a20.85,20.85,0,0,0,8.25-1.59,20.16,20.16,0,0,0,7-5.14l10.66,9.33a34.15,34.15,0,0,1-11.61,8.6,35.46,35.46,0,0,1-14.41,2.83Q932,195.07,924.76,190.56ZM955.61,156a14.13,14.13,0,0,0-.51-4,12,12,0,0,0-4.86-7.33,15.3,15.3,0,0,0-8.92-2.57q-12.06,0-14.6,13.9Z"/><path class="b" d="M974,130.38h15.11v10.67a17.15,17.15,0,0,1,6.73-8.8,18.08,18.08,0,0,1,16.59-2.06,14.12,14.12,0,0,1,5.3,3.43l-7,12.7a12,12,0,0,0-14.13.28,16.93,16.93,0,0,0-5.49,7.59A34.25,34.25,0,0,0,989,167V193.8H974Z"/><path class="b" d="M1024.43,191.32a21.59,21.59,0,0,1-7.55-9.78,35.15,35.15,0,0,1-2.38-13.07V130.38h15.3V166.5c0,4.28,1,7.72,3.17,10.35a10.86,10.86,0,0,0,9,3.93q6.8,0,10.54-3.87T1056.2,165V130.38h15.36V193.8H1056.2v-7.43a21.71,21.71,0,0,1-8.57,6.57,25.72,25.72,0,0,1-10.15,2.13Q1029.61,195.07,1024.43,191.32Z"/><path class="b" d="M1080.22,130.38h15.49v7.37a22.89,22.89,0,0,1,8.57-6.54,24.86,24.86,0,0,1,10-2.16q7.88,0,13.08,3.74a21.87,21.87,0,0,1,7.64,9.81,34.71,34.71,0,0,1,2.45,13.11V193.8H1122V157.68q0-6.42-3.17-10.38a10.8,10.8,0,0,0-9-4q-6.73,0-10.45,3.84t-3.71,11.9V193.8h-15.49Z"/><path class="b" d="M1186.1,186.53a18.89,18.89,0,0,1,8.6,5.46q3.42,3.84,3.42,10.63a18.73,18.73,0,0,1-3.65,11.71,21.61,21.61,0,0,1-10,7.14,41.29,41.29,0,0,1-14.41,2.35,42.52,42.52,0,0,1-16.57-2.89,22.81,22.81,0,0,1-10.35-8,20.3,20.3,0,0,1-3.49-11.71,13.9,13.9,0,0,1,.26-2.73l7.36-6.22q-6.22-4.19-6.22-12.38a16.86,16.86,0,0,1,1.49-7.23A17.15,17.15,0,0,1,1147,167a22.89,22.89,0,0,1-3.9-6.77,22.47,22.47,0,0,1-1.37-7.83,21.09,21.09,0,0,1,3.56-12,24.27,24.27,0,0,1,9.52-8.29,28.53,28.53,0,0,1,13-3,29.69,29.69,0,0,1,7.93,1,27.71,27.71,0,0,1,7,3l9.71-8.31,8.06,9.84-9.2,7.42a22.27,22.27,0,0,1,2.73,11.05,21.48,21.48,0,0,1-3.49,12.12,23.39,23.39,0,0,1-9.4,8.16,29,29,0,0,1-12.88,2.89,29.68,29.68,0,0,1-12.06-2.48,4,4,0,0,0-.1,6.7,12.37,12.37,0,0,0,4.64,1.71q2.88.54,8.6,1.18c.76.12,1.49.22,2.19.28s1.34.14,1.93.22A78.71,78.71,0,0,1,1186.1,186.53ZM1179.84,210a6.06,6.06,0,0,0,3.62-5.65,4.51,4.51,0,0,0-1.62-3.68,11.6,11.6,0,0,0-4.82-2.06,76.1,76.1,0,0,0-9-1.3c-.38,0-1.75-.17-4.12-.38a64.29,64.29,0,0,1-7-1l-3.42,5.71.38,1.72a10.15,10.15,0,0,0,5.62,6.54,24.42,24.42,0,0,0,10.5,2Q1176.23,211.89,1179.84,210Zm-19.36-65.79a12,12,0,0,0-2.79,8.28,11.69,11.69,0,0,0,2.76,8.1q2.76,3.08,7.78,3.07t7.71-3.07a11.85,11.85,0,0,0,2.7-8.1,12.16,12.16,0,0,0-2.73-8.28,9.61,9.61,0,0,0-7.68-3.14A9.82,9.82,0,0,0,1160.48,144.19Z"/><path class="b" d="M1225.22,104.1h16.12v37.45h39.29V104.1h16.12v89.7h-16.12V156.34h-39.29V193.8h-16.12Z"/><path class="b" d="M1345.63,132.35a22.71,22.71,0,0,1,9.45,9.27,28.07,28.07,0,0,1,3.27,13.71V193.8h-12.76l-.95-8.45a18.71,18.71,0,0,1-8.47,7.21,28.14,28.14,0,0,1-23.11.06,19.26,19.26,0,0,1-8.25-7.14,20.24,20.24,0,0,1-3-11.17q0-9.72,6.83-14t18.44-4.32h17.2a22.84,22.84,0,0,0-1.4-7.77,8,8,0,0,0-4-4.26,18.26,18.26,0,0,0-7.8-1.36,15.66,15.66,0,0,0-8.86,2.51,19.16,19.16,0,0,0-6.06,6.44L1304.27,143a35.81,35.81,0,0,1,11.33-10.28,34.33,34.33,0,0,1,30-.32ZM1336.07,180a15.5,15.5,0,0,0,5.65-5.24,17.1,17.1,0,0,0,2.6-7.14v-.5H1328q-5,0-7.65,2.22a6.87,6.87,0,0,0-2.64,5.46,6.18,6.18,0,0,0,2.64,5.2q2.63,2,7.65,2A16.52,16.52,0,0,0,1336.07,180Z"/><path class="b" d="M1368.28,192c-2.37-2.06-3.56-5.66-3.56-10.83V104.1h15.49v72.81c0,2.84,1.7,4.25,5.08,4.25a27.68,27.68,0,0,0,4.25-.38v13a61.16,61.16,0,0,1-11.55,1.27Q1371.84,195.07,1368.28,192Z"/><path class="b" d="M1394.9,192c-2.37-2.06-3.55-5.66-3.55-10.83V104.1h15.49v72.81c0,2.84,1.69,4.25,5.07,4.25a27.8,27.8,0,0,0,4.26-.38v13a61.34,61.34,0,0,1-11.56,1.27Q1398.46,195.07,1394.9,192Z"/><path class="b" d="M1427.17,190.56a28.37,28.37,0,0,1-10.82-12,37.08,37.08,0,0,1-3.59-16.28,39.25,39.25,0,0,1,3.43-16.25,28.81,28.81,0,0,1,10.44-12.31q7-4.69,17.24-4.7,10.41,0,17,4.79a27.11,27.11,0,0,1,9.49,12.06,40.75,40.75,0,0,1,2.89,15.14c0,1.27-.06,2.49-.16,3.65a12,12,0,0,1-.41,2.45h-43.55Q1431.36,181,1445,181a20.92,20.92,0,0,0,8.25-1.59,20,20,0,0,0,7-5.14l10.67,9.33a34.09,34.09,0,0,1-11.62,8.6,35.43,35.43,0,0,1-14.41,2.83Q1434.41,195.07,1427.17,190.56ZM1458,156a14.13,14.13,0,0,0-.51-4,12,12,0,0,0-4.85-7.33,15.32,15.32,0,0,0-8.92-2.57q-12.06,0-14.6,13.9Z"/></svg>